<?xml version="1.0" encoding="UTF-8"?> <svg xmlns="http://www.w3.org/2000/svg" xmlns:xlink="http://www.w3.org/1999/xlink" width="129" height="34" viewBox="0 0 129 34"><defs><path id="path-1" d="M.052.52H37.86v32.068H.052z"></path></defs><g id="🛠-Blocks" stroke="none" stroke-width="1" fill="none" fill-rule="evenodd"><g id="1.-Block-/-Navigation-/-#1-[Static]" transform="translate(-30 -18)"><g id="2.-Brand-/-Logo-/-Full-Color" transform="translate(30 18.5)"><g id="COH_Primary" transform="translate(0 -.099)"><g id="Group-3"><mask id="mask-2" fill="#fff"><use xlink:href="#path-1"></use></mask><path d="M34.263 15.006l-5.33 5.329-8.388-8.389.9-.9a6.553 6.553 0 008.753-.451.674.674 0 00-.951-.951 5.204 5.204 0 01-7.352 0 .673.673 0 00-.95 0l-6.266 6.265a1.086 1.086 0 01-.776.322 1.098 1.098 0 01-.775-1.873L23.37 4.115c3.004-3.003 7.889-3.003 10.892 0 3 3.003 3 7.888 0 10.891zm-5.739 8.373a1.094 1.094 0 01-1.552 0l-8.93-8.93 1.552-1.552 8.93 8.93a1.099 1.099 0 010 1.552zm-2.503 2.503a1.098 1.098 0 01-1.552 0l-8.935-8.936.097-.086 1.46-1.46 8.93 8.93c.208.207.322.483.322.776 0 .293-.114.569-.322.776zm-2.502 2.502a1.099 1.099 0 01-1.552 0l-10.41-10.41a.671.671 0 10-.951.951l10.41 10.41c.207.207.321.482.321.777 0 .291-.114.567-.321.774a1.085 1.085 0 01-.776.322c-.292 0-.569-.113-.775-.322L3.6 15.023a7.65 7.65 0 01-2.256-5.445c0-2.057.802-3.991 2.256-5.445a7.647 7.647 0 015.446-2.257 7.64 7.64 0 015.445 2.257l3.48 3.479-5.794 5.795a2.446 2.446 0 000 3.453 2.422 2.422 0 002.06.69l9.282 9.282c.206.207.32.483.32.777 0 .292-.114.568-.32.775zM16.41 30.92a1.1 1.1 0 01-.168-1.352l1.52 1.52a1.109 1.109 0 01-1.352-.168zm-1.735-2.193c-.296 0-.575-.116-.785-.326a1.101 1.101 0 01-.167-1.35l1.52 1.518a1.09 1.09 0 01-.568.158zm-3.303-2.844a1.102 1.102 0 01-.167-1.352l1.518 1.52a1.11 1.11 0 01-1.351-.168zM9.639 23.69a1.11 1.11 0 01-.952-1.677l1.52 1.519c-.17.101-.365.158-.568.158zM22.42 3.164l-3.497 3.498-3.48-3.481A8.992 8.992 0 009.046.531a8.991 8.991 0 00-6.396 2.65A8.989 8.989 0 000 9.578c0 2.416.941 4.688 2.65 6.396l5.073 5.074a2.456 2.456 0 00.18 3.266c.463.464 1.08.72 1.736.72l.067-.004-.002.068c0 .656.254 1.272.719 1.735a2.441 2.441 0 001.733.718l.07-.004-.004.07c0 .655.255 1.271.718 1.735a2.44 2.44 0 001.735.718h.001l.069-.003-.004.069c0 .655.256 1.271.719 1.734a2.445 2.445 0 001.734.718c.55 0 1.1-.183 1.55-.55.426.332.947.515 1.495.515.653 0 1.267-.254 1.728-.716a2.42 2.42 0 00.715-1.726l-.003-.064.065.002a2.43 2.43 0 001.726-.715 2.425 2.425 0 00.715-1.725l-.003-.065.063.002c.626 0 1.251-.238 1.727-.714a2.425 2.425 0 00.715-1.726l-.003-.063.065.002c.651 0 1.265-.253 1.726-.715.81-.81.928-2.053.358-2.993l5.38-5.38c3.527-3.526 3.527-9.266 0-12.793-3.527-3.526-9.265-3.527-12.793 0z" id="Fill-1" fill="#102D3E" mask="url(#mask-2)"></path></g><path id="Fill-4" fill="#102D3E" d="M54.725 19.894h-7.973v-7.425h-5.901V33h5.901v-8.024h7.973V33h5.902V12.469h-5.902v7.425"></path><path d="M100.236 20.856c-.404.3-.911.453-1.503.453h-4.256v-3.757h4.256c.592 0 1.097.152 1.503.455.426.317.642.8.642 1.439 0 .619-.216 1.093-.642 1.41zm4.767-6.333c-.615-.634-1.387-1.14-2.296-1.505-.914-.364-1.977-.55-3.157-.55H88.576V33h5.901v-6.607h5.073c1.18 0 2.243-.185 3.157-.55.908-.364 1.679-.869 2.296-1.506a6.378 6.378 0 001.399-2.203c.313-.83.472-1.735.472-2.688a7.7 7.7 0 00-.473-2.704 6.34 6.34 0 00-1.398-2.22z" id="Fill-5" fill="#102D3E"></path><path id="Fill-6" fill="#102D3E" d="M109.404 33h15.466v-5.085h-9.565v-2.749h9.55v-5.084h-9.55v-2.53h9.565v-5.083h-15.466V33"></path><path id="Fill-7" fill="#102D3E" d="M65.076 5.64l3.528 4.997h2.785V.92H68.49v4.535L65.162.92h-2.984v9.717h2.898V5.64"></path><path id="Fill-8" fill="#102D3E" d="M79.439 10.637L82.969.92h-3.286l-2.065 6.442L75.55.92h-3.286l3.53 9.717h3.644"></path><path id="Fill-9" fill="#102D3E" d="M95.988 10.637h2.9v-3.95L102.445.92h-3.257l-1.75 3.228L95.658.92h-3.256l3.586 5.768v3.95"></path><path id="Fill-10" fill="#102D3E" d="M117.61 10.637h2.898V7.37h4.362V4.845h-4.362v-1.4h4.362V.92h-7.26v9.717"></path><path d="M56.052 8.14a2.358 2.358 0 110-4.716 2.358 2.358 0 010 4.717zm3.66-5.87a4.87 4.87 0 00-1.632-.993 5.766 5.766 0 00-2.028-.352 5.76 5.76 0 00-2.028.352 4.87 4.87 0 00-1.633.992c-.46.426-.82.937-1.085 1.535a4.859 4.859 0 00-.393 1.978c0 .722.131 1.382.393 1.977a4.605 4.605 0 001.085 1.535 4.89 4.89 0 001.633.993 5.78 5.78 0 002.028.352c.723 0 1.398-.118 2.028-.352a4.886 4.886 0 001.633-.993 4.59 4.59 0 001.083-1.535c.264-.595.394-1.255.394-1.977 0-.722-.13-1.383-.394-1.978a4.581 4.581 0 00-1.083-1.535z" id="Fill-11" fill="#102D3E"></path><path d="M42.324 9.3c.46.428 1.005.759 1.639.993a5.89 5.89 0 002.048.351c.619 0 1.162-.085 1.631-.253a4.466 4.466 0 001.217-.646 4.1 4.1 0 00.859-.887c.23-.33.414-.649.556-.957l-2.236-1.028a2.396 2.396 0 01-4.534-1.083 2.398 2.398 0 014.534-1.085l2.236-1.04a5.922 5.922 0 00-.556-.971 3.87 3.87 0 00-.865-.878 4.58 4.58 0 00-1.218-.633c-.464-.165-1.005-.248-1.624-.248-.732 0-1.414.118-2.048.353a4.822 4.822 0 00-1.639.992 4.547 4.547 0 00-1.084 1.533 4.84 4.84 0 00-.394 1.978c0 .721.131 1.38.394 1.976A4.535 4.535 0 0042.324 9.3" id="Fill-12" fill="#102D3E"></path><path d="M87.712 8.136a2.358 2.358 0 110-4.715 2.358 2.358 0 010 4.715zm3.66 1.154a4.599 4.599 0 001.084-1.534 4.837 4.837 0 00.395-1.977 4.83 4.83 0 00-.395-1.978 4.573 4.573 0 00-1.083-1.534 4.884 4.884 0 00-1.633-.993 5.761 5.761 0 00-2.027-.352c-.724 0-1.399.118-2.027.352a4.909 4.909 0 00-1.636.993A4.578 4.578 0 0082.97 3.8a4.842 4.842 0 00-.394 1.978c0 .722.13 1.382.394 1.977a4.604 4.604 0 001.08 1.535 4.927 4.927 0 001.636.995c.628.232 1.303.35 2.027.35a5.8 5.8 0 002.027-.35 4.902 4.902 0 001.633-.995z" id="Fill-13" fill="#102D3E"></path><path d="M111.768 3.426a2.358 2.358 0 110 4.715 2.358 2.358 0 010-4.715zm0 7.213a5.76 5.76 0 002.027-.352 4.886 4.886 0 001.633-.993c.46-.427.82-.937 1.084-1.534a4.846 4.846 0 00.394-1.977c0-.722-.132-1.383-.394-1.978a4.587 4.587 0 00-1.084-1.533 4.87 4.87 0 00-1.633-.993 5.754 5.754 0 00-2.027-.352 5.75 5.75 0 00-2.026.352 4.891 4.891 0 00-1.634.993c-.459.425-.82.937-1.083 1.533a4.855 4.855 0 00-.395 1.978c0 .723.133 1.383.395 1.977a4.605 4.605 0 001.083 1.534 4.91 4.91 0 001.633.993 5.77 5.77 0 002.027.352z" id="Fill-14" fill="#102D3E"></path><path d="M77.348 27.306c-.192.116-.39.226-.6.318a5.139 5.139 0 01-2.086.416c-.759 0-1.46-.141-2.085-.416a5.207 5.207 0 01-.586-.31 5.305 5.305 0 010-9.171c.187-.113.38-.22.586-.31a5.15 5.15 0 012.085-.414c.758 0 1.459.139 2.086.413.208.093.404.2.594.317a5.304 5.304 0 01.006 9.157zm5.07-12.004c-.964-.897-2.128-1.604-3.454-2.099-1.328-.495-2.776-.745-4.302-.745-1.526 0-2.974.25-4.304.745-1.325.495-2.487 1.202-3.454 2.099a9.765 9.765 0 00-2.29 3.243c-.551 1.254-.832 2.661-.832 4.183 0 1.524.28 2.931.833 4.184a9.761 9.761 0 002.289 3.243c.968.9 2.13 1.605 3.454 2.097 1.328.497 2.777.748 4.304.748 1.527 0 2.974-.251 4.302-.748 1.325-.492 2.488-1.198 3.454-2.097a9.784 9.784 0 002.292-3.243c.552-1.253.83-2.66.83-4.184 0-1.522-.278-2.929-.83-4.183a9.796 9.796 0 00-2.292-3.243z" id="Fill-15" fill="#102D3E"></path><path d="M126.884 14.844a1.082 1.082 0 110-2.161 1.082 1.082 0 01.001 2.16zm0-2.375a1.295 1.295 0 100 2.587 1.295 1.295 0 000-2.587z" id="Fill-16" fill="#102D3E"></path><path d="M126.61 13.726v-.512h.378c.128 0 .269.097.269.262 0 .153-.141.25-.269.25h-.378zm.879-.25c0-.275-.25-.452-.5-.452h-.606v1.484h.227v-.586h.237l.385.586h.275l-.397-.592a.436.436 0 00.379-.44z" id="Fill-17" fill="#102D3E"></path></g></g></g></g></svg> 